<?xml version="1.0" encoding="UTF-8" standalone="no"?>
<svg
   xmlns:dc="http://purl.org/dc/elements/1.1/"
   xmlns:cc="http://creativecommons.org/ns#"
   xmlns:rdf="http://www.w3.org/1999/02/22-rdf-syntax-ns#"
   xmlns:svg="http://www.w3.org/2000/svg"
   xmlns="http://www.w3.org/2000/svg"
   viewBox="0 0 900 900"
   height="900"
   width="900"
   xml:space="preserve"
   version="1.1"
   id="svg2"><metadata
     id="metadata8"><rdf:RDF><cc:Work
         rdf:about=""><dc:format>image/svg+xml</dc:format><dc:type
           rdf:resource="http://purl.org/dc/dcmitype/StillImage" /></cc:Work></rdf:RDF></metadata><defs
     id="defs6" /><g
     transform="matrix(1.25,0,0,-1.25,0,900)"
     id="g10"><g
       transform="scale(0.1,0.1)"
       id="g12"><path
         id="path14"
         style="fill:#231f20;fill-opacity:1;fill-rule:nonzero;stroke:none"
         d="m 575.695,4683.8 45.301,115.63 -161.785,63.39 114,-175.2 2.484,-3.82" /><path
         id="path16"
         style="fill:#231f20;fill-opacity:1;fill-rule:nonzero;stroke:none"
         d="m 843.203,5475.92 c 19.953,-14.29 40.336,-20.31 61.16,-18.07 20.825,2.24 37.66,12.34 50.508,30.28 12.848,17.94 16.945,37.15 12.293,57.64 -4.512,20.38 -16.742,37.72 -36.691,52.01 -19.95,14.28 -40.305,20.28 -61.051,17.99 -20.75,-2.3 -37.551,-12.41 -50.399,-30.35 -12.851,-17.94 -17.019,-37.11 -12.507,-57.49 4.511,-20.39 16.742,-37.72 36.687,-52.01" /><path
         id="path18"
         style="fill:#231f20;fill-opacity:1;fill-rule:nonzero;stroke:none"
         d="m 6762.38,2854.15 c -49.31,13.08 -88,16.34 -116.08,9.81 -28.07,-6.53 -45.5,-22.77 -52.29,-48.73 -6.74,-25.8 0.56,-48.32 21.89,-67.58 21.34,-19.26 56.66,-35.43 105.98,-48.5 49.4,-12.73 88.08,-15.89 116.03,-9.51 27.94,6.39 45.28,22.47 52.02,48.26 6.79,25.96 -0.42,48.64 -21.63,68.06 -21.2,19.4 -56.51,35.46 -105.92,48.19" /><path
         id="path20"
         style="fill:#231f20;fill-opacity:1;fill-rule:nonzero;stroke:none"
         d="m 935.988,1621.94 c -19.359,-15.08 -30.738,-33.07 -34.148,-53.97 -3.414,-20.89 1.824,-40.25 15.719,-58.08 13.886,-17.82 31.379,-27.64 52.476,-29.43 21.098,-1.81 41.325,4.83 60.685,19.91 19.35,15.09 30.77,33.11 34.25,54.06 3.48,20.95 -1.72,40.34 -15.61,58.16 -13.89,17.83 -31.49,27.62 -52.774,29.39 -21.043,1.72 -41.246,-4.95 -60.598,-20.04" /><path
         id="path22"
         style="fill:#231f20;fill-opacity:1;fill-rule:nonzero;stroke:none"
         d="m 2750.29,623.609 c -21.24,6.032 -40.68,3.473 -58.33,-7.66 -17.67,-11.14 -29.84,-28.508 -36.55,-52.109 -6.7,-23.61 -5.48,-44.828 3.67,-63.668 9.15,-18.84 24.34,-31.27 45.57,-37.301 21.23,-6.031 40.69,-3.391 58.4,7.918 17.66,11.133 29.84,28.5 36.55,52.102 6.69,23.609 5.46,44.8 -3.71,63.55 -9.18,18.75 -24.37,31.149 -45.6,37.168" /><path
         id="path24"
         style="fill:#231f20;fill-opacity:1;fill-rule:nonzero;stroke:none"
         d="m 6837.57,3671.24 c -15.62,13.84 -35.69,20.69 -60.24,20.54 -24.53,-0.15 -44.53,-7.25 -59.98,-21.28 -15.44,-14.05 -23.1,-32.11 -22.97,-54.17 0.13,-22.07 8.02,-40.03 23.63,-53.88 15.62,-13.84 35.71,-20.7 60.24,-20.54 24.55,0.14 44.58,7.24 60.12,21.28 15.54,14.04 23.23,32.1 23.1,54.17 -0.14,22.07 -8.1,40.02 -23.9,53.88" /><path
         id="path26"
         style="fill:#231f20;fill-opacity:1;fill-rule:nonzero;stroke:none"
         d="m 641.578,2633.26 c -14.367,8.12 -29.648,9.39 -45.84,3.83 -16.199,-5.57 -27.457,-15.98 -33.789,-31.22 -6.168,-15.19 -6.09,-31.96 0.223,-50.33 6.316,-18.36 16.613,-31.62 30.902,-39.78 14.285,-8.15 29.524,-9.44 45.719,-3.88 16.187,5.57 27.453,15.98 33.789,31.22 6.328,15.25 6.34,32.06 0.023,50.42 -6.316,18.37 -16.66,31.61 -31.027,39.74" /><path
         id="path28"
         style="fill:#231f20;fill-opacity:1;fill-rule:nonzero;stroke:none"
         d="m 484.898,2589.32 c -17.906,9.42 -37.117,10.61 -57.652,3.55 -20.367,-7 -34.664,-19.71 -42.891,-38.13 -8.23,-18.41 -8.554,-38.65 -0.976,-60.68 7.574,-22.04 20.285,-37.83 38.133,-47.37 17.843,-9.55 36.941,-10.82 57.312,-3.82 20.535,7.06 34.985,19.87 43.352,38.44 8.199,18.49 8.508,38.77 0.929,60.79 -7.574,22.04 -20.316,37.78 -38.207,47.22" /><path
         id="path30"
         style="fill:#231f20;fill-opacity:1;fill-rule:nonzero;stroke:none"
         d="m 5495.55,6160.14 c -13.26,-16.97 -18.31,-35.42 -15.17,-55.35 3.14,-19.92 13.9,-37.06 32.26,-51.4 18.37,-14.34 37.64,-20.65 57.8,-18.93 20.16,1.73 36.87,11.08 50.13,28.05 13.36,17.12 18.49,35.73 15.39,55.85 -3.22,19.99 -14,37.14 -32.37,51.49 -18.36,14.34 -37.63,20.59 -57.77,18.74 -20.15,-1.85 -36.9,-11.33 -50.27,-28.45" /><path
         id="path32"
         style="fill:#231f20;fill-opacity:1;fill-rule:nonzero;stroke:none"
         d="m 3737.83,6707.85 c 26.81,-1.17 47.47,10.65 61.99,35.46 14.51,24.81 22.8,62.7 24.86,113.68 2.41,50.96 -2.54,89.48 -14.82,115.55 -12.29,26.07 -31.84,39.7 -58.65,40.87 -26.63,1.17 -47.11,-10.7 -61.46,-35.61 -14.35,-24.91 -22.72,-62.84 -25.13,-113.8 -2.06,-50.98 2.98,-89.45 15.09,-115.43 12.12,-25.98 31.49,-39.55 58.12,-40.72" /><path
         id="path34"
         style="fill:#231f20;fill-opacity:1;fill-rule:nonzero;stroke:none"
         d="m 7016.52,3530 c -17.96,-20.15 -42.83,-31.03 -74.6,-32.64 l -0.29,46.08 c 19.59,2.07 34.68,8.91 45.3,20.53 10.61,11.63 15.84,27.16 15.73,46.58 -0.18,28.59 -16.29,50.56 -48.34,65.9 -23.91,11.15 -55.28,18.29 -94.14,21.4 29.28,-23.48 44.02,-52.78 44.23,-87.91 0.22,-35.3 -11.21,-63.85 -34.29,-85.61 -23.08,-21.77 -53.6,-32.77 -91.56,-33 -37.95,-0.24 -68.56,11.32 -91.84,34.65 -23.26,23.34 -35.02,54.25 -35.26,92.74 -0.25,40.95 14.08,72.6 42.98,94.93 28.9,22.33 70.11,33.66 123.59,33.99 71.86,0.45 127.27,-11.22 166.26,-34.99 38.98,-23.77 58.61,-57.72 58.88,-101.85 0.21,-33.72 -8.68,-60.65 -26.65,-80.8 z m -85.09,-802.94 c -10.53,-40.32 -35.06,-67.16 -73.59,-80.53 -38.53,-13.39 -88.11,-12.16 -148.75,3.69 -60.63,15.84 -104.52,39.04 -131.66,69.58 -27.15,30.53 -35.46,65.96 -24.92,106.28 10.62,40.64 35.22,67.6 73.82,80.88 38.59,13.26 88.21,11.97 148.84,-3.87 60.64,-15.84 104.49,-38.98 131.58,-69.41 27.08,-30.44 35.31,-65.98 24.68,-106.62 z m -100.23,-288.85 -8.73,-23.87 -254.16,92.99 -30.66,-83.81 -35.81,13.09 c 9.53,24.52 11.57,46.53 6.1,66.01 -5.57,19.71 -18.76,37.6 -39.58,53.68 l 13.37,36.55 358.11,-131.01 -8.64,-23.63 z m -344.87,-716.07 c -20.8,-31.97 -45.5,-52.45 -74.09,-61.42 -28.6,-8.98 -57.67,-5.44 -87.23,10.64 l 27.16,41.72 c 19.19,-9.34 37.58,-11.11 55.15,-5.3 17.58,5.8 32.86,18.68 45.83,38.62 12.5,19.2 15.99,39.28 10.45,60.23 -5.53,20.95 -18.88,38.31 -40.04,52.09 -22.19,14.43 -43.97,19.55 -65.35,15.36 -21.38,-4.21 -39.14,-17.19 -53.3,-38.93 -7.61,-11.69 -12.18,-24.88 -13.73,-39.57 -1.55,-14.68 0.2,-27.67 5.27,-38.97 l -24.17,-32.29 -155.43,134.01 107.75,165.58 38.84,-25.29 -88.29,-135.66 78.43,-70.77 -0.03,1.92 c -0.65,25.5 5.37,48.04 18.09,67.6 21.88,33.61 48.61,54.28 80.16,61.99 31.32,7.66 62.81,1.19 94.47,-19.42 32.7,-21.28 52.78,-48.94 60.23,-82.95 7.45,-34.03 0.73,-67.09 -20.17,-99.19 z m -184.58,-240.03 -15.8,-19.91 -211.97,168.26 -55.48,-69.89 -29.87,23.7 c 16.77,20.27 25.63,40.52 26.57,60.73 0.91,20.46 -5.98,41.59 -20.68,63.41 l 24.21,30.49 298.67,-237.07 -15.65,-19.72 z m -737.37,-700.93 -0.05,0.062 c -24.21,31.899 -36.09,64.039 -35.62,96.418 0.47,32.36 13.45,77.16 38.94,134.4 12.25,27.95 18.51,49.79 18.76,65.52 0.24,15.73 -5.51,31.34 -17.27,46.84 -12.3,16.19 -28.11,25.06 -47.45,26.59 -19.33,1.53 -38,-4.53 -56,-18.2 -18.85,-14.31 -28.74,-31.99 -29.71,-53.06 -0.96,-21.06 7.2,-43.71 24.48,-67.93 l -36.91,-28.019 c -25.97,33.029 -36.97,66.069 -33.02,99.109 3.96,33.03 22.39,62.04 55.29,87.02 28.13,21.35 57.54,30.48 88.24,27.41 30.45,-3.03 55.66,-17.7 75.62,-44 16.97,-22.35 25.2,-45.09 24.68,-68.2 -0.52,-23.12 -9.98,-55.4 -28.39,-96.851 -20,-44.887 -30.34,-79.879 -31.01,-104.988 -0.08,-10.699 1.4,-21.551 4.43,-32.539 l 164.94,125.199 28.02,-36.922 -207.97,-157.859 z m -710.94,345.62 -20.7,-10.3 -20.73,-10.31 -0.1,0.2 C 4723.14,1063.16 4632.42,1024.71 4539.98,991.371 4381.11,934.07 4217.27,891.629 4050.1,864.332 l 0.04,-0.223 -22.9,-3.539 c -0.02,0 -0.05,-0.007 -0.07,-0.007 l -22.77,-3.532 -0.03,0.231 C 3871.09,837.781 3735.2,827.789 3600,827.789 c -141.94,0 -285.07,11.141 -425.85,32.852 l -0.04,-0.231 -22.8,3.711 -22.87,3.731 0.04,0.218 c -264.84,45.371 -520.56,128.821 -760.84,248.28 l -0.1,-0.2 -20.65,10.49 -20.61,10.46 0.1,0.2 c -144.9,75.07 -282.46,162.5 -411.56,261.48 -89.4,68.55 -174.73,142.62 -255.62,221.95 l -0.15,-0.15 -16.39,16.32 -16.38,16.34 0.15,0.16 c -127.4,129.15 -241.35,269.67 -340.7,420.02 -51.84,78.46 -99.7,159.58 -143.43,243.15 l -0.2,-0.11 -10.55,20.58 -10.56,20.61 0.2,0.1 c -70.56,140.53 -128.877,286.26 -174.315,436.1 -5.297,17.47 -10.418,34.99 -15.367,52.56 -19.797,70.3 -36.809,141.45 -51,213.33 -5.602,28.37 -10.633,56.9 -15.352,85.49 l -0.222,-0.03 -3.586,22.89 -3.571,22.82 0.223,0.04 c -19.965,135 -30.207,272.46 -30.207,409.05 0,124.28 8.59,249.99 25.344,374.07 l -0.211,0.03 3.285,22.87 3.289,22.93 0.23,-0.03 c 4.461,29.34 9.25,58.61 14.633,87.73 46.106,249.31 126.227,490.14 238.577,717.74 l -0.21,0.1 10.43,20.68 10.4,20.64 0.21,-0.1 c 129.86,252.37 297.02,482.46 497.32,684.55 l -0.16,0.16 16.42,16.3 16.43,16.3 0.16,-0.17 c 167.6,163.61 354.02,304.76 556.15,420.91 41.52,23.86 83.77,46.55 126.57,68.28 l -0.1,0.21 20.7,10.29 20.73,10.31 0.1,-0.2 c 72.82,35.46 146.93,67.75 222.26,96.57 174.31,66.69 354.91,115.34 539.55,145.49 l -0.03,0.22 22.89,3.55 c 0.03,0 0.05,0 0.08,0.01 l 22.76,3.52 0.04,-0.22 c 133.3,19.47 269.19,29.47 404.36,29.47 141.93,0 285.06,-11.14 425.86,-32.86 l 0.03,0.24 22.81,-3.72 22.87,-3.72 -0.04,-0.22 c 264.85,-45.38 520.56,-128.83 760.83,-248.28 l 0.1,0.2 20.65,-10.48 20.61,-10.46 -0.1,-0.21 c 219.72,-113.84 422.66,-256.01 604.67,-423.81 21.15,-19.5 41.93,-39.44 62.51,-59.63 l 0.16,0.16 16.39,-16.34 16.38,-16.33 -0.16,-0.16 c 32.97,-33.42 65.14,-67.52 96.29,-102.44 152.03,-170.43 282,-358.44 387.84,-560.72 l 0.2,0.1 10.55,-20.57 10.56,-20.61 -0.2,-0.1 c 78.79,-156.91 142.28,-320.32 189.69,-488.66 27.61,-98.05 49.68,-197.79 66.35,-298.82 l 0.23,0.03 3.58,-22.89 3.57,-22.83 -0.22,-0.03 c 17.32,-117.2 27.36,-236.23 29.67,-354.92 0.36,-18.05 0.53,-36.1 0.53,-54.13 0,-124.29 -8.59,-250 -25.34,-374.07 l 0.21,-0.03 -3.29,-22.88 -3.28,-22.93 -0.24,0.03 c -4.45,-29.34 -9.24,-58.61 -14.63,-87.73 -46.11,-249.31 -126.23,-490.14 -238.58,-717.73 l 0.21,-0.1 -10.42,-20.68 -10.41,-20.65 -0.21,0.11 c -13.58,-26.41 -27.46,-52.64 -41.86,-78.55 -123.22,-221.74 -276.11,-425.06 -455.46,-605.99 l 0.17,-0.17 -16.43,-16.29 -16.42,-16.3 -0.16,0.16 c -202.04,-197.23 -431.52,-361.65 -682.73,-489.19 l 0.1,-0.21 z m -46.15,-741.351 -49.7,-19.047 c -11.49,64.039 -14.67,126.157 -9.55,186.348 5.26,58.352 18.39,116.891 39.41,175.609 l -198.43,-76.039 -16.58,43.27 246.03,94.289 7.58,-19.777 7.59,-19.793 c -21.35,-60.727 -34.22,-120.86 -38.63,-180.411 -4.34,-59.707 -0.25,-121.187 12.28,-184.449 z m -268.5,-88.34 -24.5,-6.8 -72.43,260.75 -85.98,-23.879 -10.21,36.742 c 25.49,6.527 44.56,17.687 57.21,33.476 12.78,16.012 19.64,37.161 20.58,63.442 l 37.51,10.422 102.06,-367.422 -24.24,-6.731 z M 3736.86,192.262 c -24.44,-22.981 -56.08,-34.711 -94.91,-35.172 -42.73,-0.52 -75.06,9.39 -97.02,29.691 -21.96,20.301 -34.17,51.621 -36.62,93.957 l 49.78,0.602 c 3.19,-29.621 11.31,-50.75 24.37,-63.391 13.06,-12.66 33.21,-18.808 60.44,-18.48 23.51,0.281 42.7,7.273 57.57,20.961 14.86,13.679 22.17,31.109 21.92,52.289 -0.27,22.25 -7.72,39.812 -22.35,52.703 -12.5,11.148 -28.46,17.308 -47.89,18.488 -9.01,0.422 -17.53,0.578 -25.56,0.488 -8.04,-0.097 -13.37,-0.507 -16.01,-1.25 l -0.5,41.563 c 3.89,-0.82 9.9,-1.191 18.02,-1.09 8.12,0.098 16.15,0.719 24.08,1.871 15.33,2.129 27.72,7.328 37.15,15.567 12.76,10.773 19.02,25.711 18.79,44.832 -0.21,18.031 -7.23,32.679 -21.05,43.918 -13.82,11.25 -31.41,16.75 -52.76,16.492 -22.6,-0.27 -39.82,-7.399 -51.65,-21.41 -11.84,-14 -18.21,-34.782 -19.12,-62.332 L 3517.21,422 c -0.48,39.891 9.6,70.859 30.26,92.922 20.66,22.047 50.14,33.308 88.44,33.769 36.19,0.438 65.47,-8.261 87.84,-26.089 22.37,-17.832 33.74,-41.563 34.09,-71.223 0.36,-29.481 -10.48,-53.438 -32.5,-71.891 -4.19,-3.586 -8.75,-6.816 -13.65,-9.699 9.22,-3.957 17.4,-8.711 24.53,-14.269 24.06,-18.43 36.28,-43.532 36.66,-75.309 0.43,-35.66 -11.58,-64.973 -36.02,-87.949 z M 2841.88,468.23 c -19.63,-69.128 -46.29,-119.089 -79.99,-149.878 -33.71,-30.813 -71.79,-40.18 -114.25,-28.133 -32.44,9.211 -55.82,25.25 -70.15,48.133 -14.34,22.89 -17.84,49.796 -10.52,80.75 l 44.32,-12.582 c -3.48,-19.379 -1.12,-35.79 7.09,-49.219 8.2,-13.43 21.65,-22.801 40.33,-28.11 27.51,-7.8 53.1,1.528 76.77,28.02 17.38,19.848 32.99,47.988 46.83,84.437 -30.72,-21.558 -62.97,-27.539 -96.77,-17.949 -33.96,9.641 -58.18,28.59 -72.64,56.832 -14.46,28.231 -16.51,60.61 -6.14,97.121 10.36,36.52 30,62.68 58.9,78.52 28.91,15.828 61.87,18.5 98.89,7.988 39.4,-11.199 65.79,-33.781 79.17,-67.769 13.38,-33.993 12.77,-76.711 -1.84,-128.161 z m -447.52,-83.699 -23.44,9.141 -23.69,9.226 98.3,252.153 -83.15,32.418 13.85,35.523 c 24.31,-10.043 46.27,-12.543 65.86,-7.48 19.82,5.16 37.99,17.98 54.49,38.437 l 36.27,-14.14 -138.49,-355.278 z m -494.24,642.639 -12.45,-17.15 c -62.55,-15.25 -119.97,-37.282 -172.27,-66.059 -52.41,-28.93 -101.7,-65.91 -147.89,-110.922 l -43.07,31.262 c 47.4,44.558 97.72,81.121 150.96,109.668 51.77,27.421 108,48.351 168.67,62.781 l -171.98,124.8 27.21,37.51 213.26,-154.75 -12.44,-17.14 z m -674.76,610.94 c -2.07,-26.78 -15.2,-50.5 -39.4,-71.14 l -28.97,37.18 c 13.81,13.01 21.29,27.11 22.42,42.31 1.13,15.2 -4.11,30.26 -15.72,45.15 -18.12,23.27 -43.2,32.48 -75.25,27.65 -27.54,-4.01 -58.18,-18.26 -91.909,-42.75 38.359,-0.11 68.819,-14.64 91.379,-43.6 22.14,-28.41 30.81,-58.42 26.01,-90.02 -4.81,-31.61 -22.18,-59.08 -52.11,-82.4 -29.94,-23.33 -61.38,-32.67 -94.33,-28.02 -32.949,4.66 -61.41,22.37 -85.386,53.15 -25.614,32.86 -32.625,68.06 -21.047,105.62 11.574,37.56 40.828,74.62 87.758,111.19 51.945,40.48 99.515,62 142.725,64.56 43.1,2.7 78.44,-13.63 106,-49 20.62,-26.45 29.89,-53.08 27.83,-79.88 z m -511.626,102.21 -13.671,21.43 228.14,145.57 -48.004,75.23 32.149,20.52 c 13.703,-22.46 29.953,-37.43 48.754,-44.91 19.046,-7.54 41.278,-7.91 66.688,-1.12 l 20.93,-32.82 -321.45,-205.11 -13.536,21.21 z m -59.5,723.39 c -25.711,-8.84 -49.914,-5.78 -72.605,9.19 -6.012,3.91 -11.582,8.44 -16.711,13.58 -1.012,-11.18 -3.395,-21.88 -7.148,-32.14 -10.446,-28.8 -30.614,-48.33 -60.497,-58.6 -33.722,-11.61 -64.726,-9.67 -93.011,5.81 -28.278,15.48 -48.77,41.66 -61.453,78.56 -12.688,36.9 -12.621,70.11 0.191,99.62 12.813,29.51 36.078,50.07 69.801,61.66 29.883,10.28 57.879,7.31 83.996,-8.92 9.039,-5.67 17.281,-12.54 24.73,-20.61 1.274,7.15 2.969,14.17 5.078,21.06 8.743,25.59 25.973,42.81 51.684,51.65 29.047,9.99 55.949,7.91 80.703,-6.27 24.754,-14.17 42.817,-37.78 54.184,-70.84 11.367,-33.05 11.644,-62.78 0.844,-89.17 -10.809,-26.4 -30.735,-44.59 -59.786,-54.58 z m -432.039,866.74 c -0.804,26.31 -7.531,47.36 -20.175,63.16 -12.829,15.95 -31.957,27.27 -57.399,33.94 l -1.973,38.88 380.832,19.31 1.274,-25.13 1.285,-25.39 -270.281,-13.7 4.519,-89.13 -38.082,-1.94 z m -76.652,464.84 380.965,-16.55 -1.098,-25.13 -1.101,-25.4 -270.375,11.75 -3.875,-89.16 -38.094,1.66 c 1.668,26.25 -3.047,47.84 -14.152,64.76 -11.27,17.09 -29.258,30.16 -53.958,39.19 l 1.688,38.88 z m 138.953,796.62 366.731,-104.49 -6.891,-24.19 -6.969,-24.45 -260.277,74.16 -24.449,-85.83 -36.672,10.45 c 7.715,25.15 8.136,47.25 1.261,66.28 -7,19.24 -21.464,36.12 -43.398,50.63 l 10.664,37.44 z m 114.727,324.55 7.246,18.5 232.011,-90.9 19.708,50.3 37.972,-14.88 -19.711,-50.29 85.063,-33.33 -17.481,-44.63 -85.062,33.33 -61.344,-156.57 -20.707,8.12 -20.715,8.11 -164.223,253.76 7.243,18.48 z m 386.465,696.09 c 23.843,33.29 54.027,50.49 90.535,51.6 36.507,1.1 76.507,-13.92 119.996,-45.06 58.421,-41.83 96.421,-83.82 114.021,-125.95 17.6,-42.14 13.54,-81.14 -12.15,-117.03 -19.63,-27.41 -42.64,-43.99 -69.02,-49.75 -26.37,-5.75 -52.894,0.04 -79.55,17.4 l 26.828,37.46 c 17.062,-9.83 33.302,-13.15 48.712,-9.97 15.42,3.18 28.78,12.67 40.09,28.46 16.65,23.25 16.51,50.49 -0.42,81.72 -12.8,23.07 -34.01,47.27 -63.63,72.61 9.9,-36.19 4.63,-68.57 -15.823,-97.13 -20.558,-28.71 -46.57,-45.1 -78.035,-49.16 -31.465,-4.07 -62.625,4.95 -93.484,27.05 -30.86,22.1 -48.852,49.42 -53.988,81.98 -5.129,32.55 3.507,64.48 25.918,95.77 z m 670.532,631.95 c 5.5,19.73 3.55,41.87 -5.85,66.43 l 30.46,24.25 237.52,-298.31 -19.68,-15.67 -19.88,-15.84 -168.58,211.72 -69.81,-55.59 -23.76,29.83 c 20.91,15.97 34.1,33.7 39.58,53.18 z m 198.95,175.15 c 6.31,32.66 26.77,60.28 61.38,82.83 29.58,19.28 59.57,26.29 89.97,21.03 30.16,-5.21 54.25,-21.65 72.28,-49.31 15.32,-23.51 21.9,-46.78 19.72,-69.79 -2.17,-23.02 -13.92,-54.54 -35.25,-94.57 -23.17,-43.34 -35.98,-77.5 -38.45,-102.5 -0.85,-10.66 -0.15,-21.59 2.08,-32.78 l 173.49,113.07 25.3,-38.83 -218.74,-142.55 -0.04,0.05 c -21.87,33.56 -31.41,66.47 -28.62,98.72 2.79,32.26 18.94,76.02 48.47,131.28 14.21,27 22.02,48.33 23.39,64 1.37,15.67 -3.25,31.66 -13.87,47.96 -11.1,17.03 -26.24,27.01 -45.41,29.92 -19.18,2.91 -38.24,-1.8 -57.16,-14.14 -19.83,-12.92 -30.97,-29.85 -33.44,-50.79 -2.47,-20.95 4.05,-44.12 19.55,-69.52 l -38.82,-25.3 c -23.54,34.81 -32.15,68.55 -25.83,101.22 z m 964.48,492.76 14.52,-44.01 -153.72,-50.7 16.98,-104.27 1.17,1.51 c 15.44,20.33 34.23,34.15 56.38,41.46 38.09,12.56 71.87,11.99 101.32,-1.71 29.24,-13.6 49.77,-38.33 61.6,-74.21 12.22,-37.05 10.61,-71.19 -4.84,-102.4 -15.45,-31.22 -41.37,-52.82 -77.75,-64.82 -36.21,-11.95 -68.28,-12.49 -96.21,-1.62 -27.95,10.85 -48.42,31.8 -61.44,62.82 l 47.27,15.6 c 9.15,-19.29 22.4,-32.17 39.74,-38.62 17.35,-6.45 37.32,-5.95 59.92,1.5 21.76,7.18 37.03,20.67 45.8,40.48 8.78,19.81 9.21,41.71 1.3,65.69 -8.29,25.14 -22.1,42.75 -41.41,52.84 -19.31,10.08 -41.29,11.06 -65.93,2.93 -13.25,-4.37 -25.06,-11.8 -35.45,-22.29 -10.39,-10.5 -17.14,-21.74 -20.25,-33.73 l -39.05,-10.09 -37.55,201.76 187.6,61.88 z m 714.25,102.37 c 21.91,25.04 53.49,38.6 94.75,40.66 35.26,1.76 64.7,-7.28 88.32,-27.14 23.43,-19.68 35.97,-46.01 37.62,-78.98 1.4,-28.03 -4.63,-51.45 -18.09,-70.24 -13.48,-18.79 -39.5,-40.11 -78.07,-63.95 -41.84,-25.79 -70.12,-48.85 -84.84,-69.21 -6.1,-8.79 -11,-18.58 -14.7,-29.37 l 206.82,10.34 2.32,-46.28 -260.78,-13.04 0,0.07 c -2,40.01 6.32,73.25 24.98,99.71 18.64,26.46 54.63,56.13 107.96,89.02 25.88,16.16 43.36,30.67 52.44,43.52 9.08,12.85 13.14,28.99 12.17,48.41 -1.02,20.31 -9.08,36.56 -24.18,48.73 -15.11,12.16 -33.94,17.68 -56.51,16.56 -23.63,-1.18 -41.78,-10.2 -54.46,-27.06 -12.67,-16.85 -18.72,-40.15 -18.11,-69.9 l -46.29,-2.32 c -2.8,41.93 6.75,75.42 28.65,100.47 z m 280.19,-148.57 c 2.74,62.61 16.19,110.4 40.34,143.36 24.15,32.95 57.04,48.52 98.66,46.7 41.97,-1.84 73.5,-20.23 94.6,-55.17 21.08,-34.94 30.26,-83.72 27.52,-146.32 -2.74,-62.62 -16.15,-110.35 -40.21,-143.23 -24.05,-32.87 -57.07,-48.39 -99.05,-46.55 -41.62,1.82 -73.02,20.16 -94.2,55.02 -21.18,34.85 -30.4,83.58 -27.66,146.19 z m 968.03,-62.33 12.21,36.12 c 24.75,-8.93 46.8,-10.41 66.14,-4.46 19.56,6.05 37.12,19.68 52.68,40.88 l 36.88,-12.47 -122.14,-361.23 -23.84,8.06 -24.08,8.14 86.69,256.38 -84.54,28.58 z m 736.4,-327.53 20.51,32.14 c 21.89,-14.59 42.94,-21.32 63.14,-20.19 20.44,1.19 40.76,10.21 60.95,27.07 l 32.81,-20.94 -205.16,-321.43 -21.21,13.54 -21.43,13.68 145.61,228.12 -75.22,48.01 z m 238.49,-228.47 c -6.62,26.23 -1.57,50.06 15.17,71.49 18.91,24.21 42.6,37.12 71.08,38.74 28.47,1.61 56.48,-8.34 84.03,-29.85 27.55,-21.51 44,-46.28 49.33,-74.3 5.33,-28.02 -1.45,-54.14 -20.36,-78.35 -16.74,-21.42 -38.7,-32.05 -65.88,-31.87 -7.18,0 -14.31,0.76 -21.41,2.27 5.24,-9.92 9.08,-20.2 11.53,-30.84 6.94,-29.84 0.68,-57.21 -18.77,-82.11 -21.94,-28.11 -48.99,-43.39 -81.14,-45.83 -32.15,-2.45 -63.6,8.34 -94.35,32.35 -30.75,24.01 -48.8,51.89 -54.15,83.61 -5.35,31.73 2.95,61.65 24.9,89.76 19.45,24.9 44.54,37.67 75.28,38.31 10.66,0.18 21.33,-1.09 31.97,-3.81 -2.83,6.7 -5.24,13.51 -7.23,20.43 z m 554.46,-673.28 18.05,13 302.26,0.32 11.61,-16.12 11.6,-16.12 -202.21,-145.6 31.57,-43.84 -33.1,-23.83 -31.57,43.84 -74.13,-53.39 -28.01,38.9 74.14,53.38 -98.26,136.46 18.05,13 z m 586.93,-698.59 35.66,13.5 c 8.81,-24.78 21.66,-42.76 38.55,-53.92 17.1,-11.27 38.78,-16.18 65.04,-14.73 l 13.77,-36.4 -356.59,-135.06 -8.91,23.52 -9,23.77 253.08,95.86 -31.6,83.46 z m 238.83,-362.23 c 9.52,-34.91 8.46,-65.44 -3.16,-91.57 -11.63,-26.14 -31.75,-43.11 -60.36,-50.91 -28.45,-7.75 -54.37,-3.29 -77.76,13.38 -4.53,3.16 -8.8,6.76 -12.82,10.78 -1.51,-9.92 -4.06,-19.03 -7.65,-27.33 -11.78,-27.92 -33,-46.06 -63.66,-54.41 -34.4,-9.38 -65.8,-5.13 -94.19,12.74 -28.39,17.88 -47.69,45.56 -57.91,83.02 -11.24,41.22 -9.78,75.01 4.35,101.37 14.12,26.36 41.38,46.05 81.74,59.07 l 13.1,-48.04 c -27.87,-10.53 -46.28,-23.7 -55.24,-39.52 -8.95,-15.82 -9.84,-36.87 -2.68,-63.14 6.18,-22.69 17.77,-39.5 34.75,-50.45 16.98,-10.95 35.69,-13.64 56.13,-8.07 21.46,5.85 36.58,17.48 45.39,34.88 7.64,14.9 9.59,31.9 5.86,51 -1.87,8.83 -3.85,17.12 -5.97,24.87 -2.1,7.74 -3.85,12.81 -5.22,15.17 l 40.1,10.94 c 0.18,-3.98 1.33,-9.88 3.47,-17.72 2.14,-7.83 4.76,-15.44 7.87,-22.83 5.91,-14.31 14.05,-24.99 24.41,-32.05 13.63,-9.63 29.67,-11.94 48.11,-6.92 17.4,4.75 29.81,15.23 37.23,31.43 7.4,16.2 8.3,34.61 2.68,55.21 -5.94,21.81 -17.18,36.67 -33.71,44.61 -16.53,7.93 -38.24,8.88 -65.13,2.82 l -12.19,44.71 c 38.49,10.5 71,8.52 97.55,-5.93 26.53,-14.44 44.84,-40.15 54.91,-77.11 z m 219.27,-352.82 c -58.96,376.84 -177.03,739.9 -350.93,1079.09 -172.18,335.86 -395.49,641.77 -663.73,909.24 -269.09,268.3 -576.79,491.28 -914.55,662.74 -328.98,167 -680.41,281.73 -1044.51,340.99 -191.5,31.18 -387.57,46.98 -582.78,46.98 -185.75,0 -372.44,-14.31 -554.88,-42.53 -364.27,-56.36 -716.2,-168.1 -1046.04,-332.13 C 1653.69,6653.56 1339.16,6428.13 1064.23,6155.28 787.422,5880.57 558.363,5565.31 383.414,5218.24 208.523,4871.31 91.875,4500.33 36.6992,4115.6 12.3477,3945.78 0,3772.3 0,3600 0,3412.26 14.6367,3223.52 43.5078,3039.04 102.465,2662.19 220.535,2299.13 394.434,1959.94 566.629,1624.06 789.938,1318.15 1058.17,1050.72 1327.26,782.41 1634.95,559.43 1972.71,387.969 2301.7,220.961 2653.12,106.242 3017.22,46.9805 3208.7,15.8086 3404.77,0 3600,0 c 185.78,0 372.47,14.3125 554.89,42.5313 364.26,56.3476 716.2,168.0977 1046.04,332.1287 345.38,171.781 659.91,397.219 934.84,670.05 276.82,274.72 505.88,589.99 680.83,937.04 174.88,346.94 291.53,717.92 346.7,1102.64 24.35,169.83 36.71,343.29 36.71,515.61 0,187.7 -14.65,376.44 -43.51,560.96" /><path
         id="path36"
         style="fill:#231f20;fill-opacity:1;fill-rule:nonzero;stroke:none"
         d="m 5629.02,6202.41 c 15.3,-11.96 31.16,-17.45 47.59,-16.51 16.42,0.96 29.9,8.18 40.44,21.68 10.54,13.49 14.3,28.36 11.3,44.59 -3,16.23 -12.15,30.33 -27.46,42.28 -15.31,11.95 -31.2,17.42 -47.67,16.39 -16.48,-1.02 -29.99,-8.27 -40.52,-21.77 -10.55,-13.5 -14.31,-28.36 -11.31,-44.59 3.11,-16.09 12.32,-30.12 27.63,-42.07" /><path
         id="path38"
         style="fill:#231f20;fill-opacity:1;fill-rule:nonzero;stroke:none"
         d="m 6365.78,5550.51 -209.03,-0.74 -4.55,-0.02 72.57,-100.78 141.01,101.54" /><path
         id="path40"
         style="fill:#231f20;fill-opacity:1;fill-rule:nonzero;stroke:none"
         d="m 2558.59,5778.16 c 6.06,2.9 12.14,5.79 18.22,8.64 7.52,3.53 15.06,7 22.61,10.45 6.09,2.78 12.18,5.55 18.3,8.27 7.63,3.41 15.29,6.75 22.95,10.08 6.06,2.63 12.12,5.26 18.2,7.84 7.84,3.32 15.7,6.57 23.57,9.81 5.95,2.44 11.88,4.91 17.85,7.31 8.08,3.25 16.19,6.41 24.3,9.57 5.83,2.27 11.64,4.57 17.48,6.79 8.47,3.23 16.98,6.35 25.48,9.47 5.5,2.03 10.98,4.1 16.5,6.08 9.5,3.41 19.05,6.71 28.6,10 4.54,1.57 9.07,3.2 13.63,4.74 28.25,9.57 56.68,18.6 85.26,27.1 4.76,1.41 9.55,2.74 14.32,4.12 9.54,2.77 19.08,5.55 28.65,8.2 5.76,1.59 11.54,3.1 17.31,4.65 8.63,2.32 17.25,4.65 25.9,6.88 6.18,1.59 12.39,3.09 18.58,4.63 8.28,2.06 16.56,4.12 24.86,6.09 6.45,1.53 12.92,2.99 19.39,4.46 8.07,1.85 16.14,3.68 24.24,5.45 6.62,1.44 13.25,2.81 19.89,4.2 7.98,1.67 15.97,3.32 23.98,4.9 6.74,1.34 13.5,2.62 20.26,3.9 7.92,1.5 15.84,2.97 23.77,4.39 6.85,1.22 13.72,2.41 20.59,3.58 3.94,0.67 7.87,1.4 11.81,2.05 l -48.07,308.25 c -259.77,-42.45 -511.32,-122.37 -748.41,-237.79 l 138.71,-279.46 c 3.74,1.82 7.52,3.55 11.27,5.35" /><path
         id="path42"
         style="fill:#231f20;fill-opacity:1;fill-rule:nonzero;stroke:none"
         d="m 1460.2,4718.04 c 3.28,6.25 6.56,12.49 9.89,18.71 4.17,7.79 8.39,15.56 12.64,23.3 3.36,6.12 6.72,12.24 10.13,18.33 4.37,7.79 8.8,15.54 13.24,23.27 3.43,5.97 6.85,11.94 10.33,17.88 4.58,7.82 9.25,15.58 13.91,23.34 3.47,5.77 6.92,11.56 10.43,17.29 4.87,7.94 9.82,15.81 14.78,23.69 3.44,5.47 6.85,10.97 10.33,16.42 5.26,8.21 10.63,16.36 15.99,24.51 3.31,5.03 6.57,10.1 9.91,15.11 6.01,8.99 12.13,17.89 18.26,26.79 2.8,4.08 5.55,8.21 8.38,12.27 18.03,25.87 36.57,51.39 55.61,76.54 3.14,4.15 6.36,8.23 9.52,12.36 6.43,8.37 12.84,16.74 19.37,25.03 3.93,4.98 7.94,9.9 11.91,14.85 5.88,7.35 11.76,14.7 17.73,21.99 4.33,5.28 8.74,10.5 13.12,15.74 5.73,6.86 11.45,13.73 17.25,20.54 4.6,5.38 9.27,10.71 13.91,16.06 5.71,6.57 11.43,13.15 17.21,19.66 4.81,5.42 9.68,10.79 14.54,16.16 5.74,6.35 11.49,12.69 17.3,18.99 4.99,5.39 10.02,10.75 15.05,16.11 5.81,6.17 11.64,12.34 17.52,18.46 5.14,5.35 10.32,10.68 15.52,15.99 3.12,3.2 6.19,6.44 9.33,9.62 l -0.08,0.08 -219.63,221.33 c -196.77,-198.57 -361,-424.63 -488.61,-672.54 l 278.7,-140.21 c 2.14,4.13 4.36,8.21 6.51,12.33" /><path
         id="path44"
         style="fill:#231f20;fill-opacity:1;fill-rule:nonzero;stroke:none"
         d="m 5988.37,3953.27 -0.11,-0.02 c 0.61,-4.14 1.12,-8.29 1.71,-12.44 0.98,-6.98 1.95,-13.97 2.87,-20.97 1.09,-8.19 2.12,-16.38 3.12,-24.58 0.84,-6.95 1.69,-13.9 2.47,-20.86 0.95,-8.33 1.82,-16.66 2.68,-25 0.7,-6.85 1.41,-13.71 2.06,-20.57 0.8,-8.5 1.52,-17.02 2.23,-25.54 0.56,-6.72 1.15,-13.44 1.66,-20.17 0.66,-8.74 1.22,-17.49 1.78,-26.25 0.42,-6.51 0.88,-13.01 1.25,-19.53 0.52,-9.16 0.92,-18.33 1.33,-27.5 0.28,-6.1 0.61,-12.2 0.84,-18.3 0.38,-10.16 0.63,-20.31 0.89,-30.47 0.13,-5.11 0.32,-10.22 0.42,-15.33 0.29,-15.26 0.45,-30.51 0.45,-45.74 0,-13.9 -0.14,-27.83 -0.38,-41.76 -0.08,-4.67 -0.25,-9.34 -0.35,-14.01 -0.22,-9.26 -0.43,-18.53 -0.75,-27.81 -0.2,-5.61 -0.48,-11.23 -0.71,-16.85 -0.35,-8.36 -0.69,-16.71 -1.13,-25.08 -0.31,-5.97 -0.69,-11.94 -1.04,-17.91 -0.48,-8.01 -0.96,-16.02 -1.51,-24.03 -0.43,-6.16 -0.91,-12.31 -1.39,-18.47 -0.6,-7.84 -1.21,-15.67 -1.89,-23.51 -0.54,-6.22 -1.13,-12.44 -1.71,-18.66 -0.74,-7.79 -1.49,-15.57 -2.3,-23.34 -0.64,-6.22 -1.33,-12.42 -2.02,-18.63 -0.87,-7.79 -1.77,-15.58 -2.71,-23.35 -0.75,-6.15 -1.52,-12.3 -2.31,-18.44 -0.47,-3.64 -0.89,-7.3 -1.37,-10.94 l 308.73,-44.67 c 16.44,121.88 24.76,245.38 24.76,367.46 0,134.13 -9.93,269.22 -29.52,401.86 l -308.05,-48.59 0,0" /><path
         id="path46"
         style="fill:#231f20;fill-opacity:1;fill-rule:nonzero;stroke:none"
         d="m 5344.49,5268.44 c 5.76,-6.01 11.47,-12.06 17.16,-18.13 4.84,-5.16 9.67,-10.33 14.46,-15.53 5.66,-6.15 11.27,-12.34 16.87,-18.54 4.7,-5.21 9.4,-10.41 14.05,-15.65 5.63,-6.34 11.18,-12.74 16.73,-19.13 4.51,-5.2 9.04,-10.38 13.5,-15.6 5.6,-6.57 11.13,-13.19 16.66,-19.81 4.3,-5.15 8.63,-10.28 12.88,-15.46 5.73,-6.97 11.36,-14.01 17.01,-21.05 3.93,-4.9 7.91,-9.77 11.81,-14.7 6.14,-7.78 12.18,-15.64 18.22,-23.49 3.3,-4.28 6.65,-8.52 9.92,-12.82 8.84,-11.65 17.57,-23.37 26.2,-35.17 0.96,-1.31 1.92,-2.64 2.88,-3.96 8.41,-11.55 16.73,-23.17 24.93,-34.87 3.09,-4.4 6.09,-8.86 9.15,-13.28 5.64,-8.16 11.3,-16.32 16.84,-24.56 3.49,-5.18 6.9,-10.42 10.35,-15.64 4.99,-7.53 9.99,-15.06 14.9,-22.66 3.62,-5.61 7.17,-11.27 10.75,-16.9 4.61,-7.28 9.23,-14.56 13.77,-21.88 3.63,-5.86 7.19,-11.77 10.77,-17.66 4.37,-7.19 8.74,-14.38 13.03,-21.62 3.59,-6.06 7.13,-12.14 10.67,-18.23 4.15,-7.14 8.29,-14.29 12.37,-21.48 3.54,-6.22 7.02,-12.47 10.5,-18.72 3.97,-7.14 7.92,-14.29 11.81,-21.47 3.46,-6.36 6.87,-12.74 10.27,-19.14 1.95,-3.67 3.97,-7.31 5.9,-10.99 l 277.77,142.11 c -125.3,239.4 -285.19,458.4 -475.63,651.5 l -220.24,-220.89 c 3,-3.05 5.93,-6.16 8.92,-9.23 4.96,-5.1 9.91,-10.21 14.82,-15.35" /><path
         id="path48"
         style="fill:#231f20;fill-opacity:1;fill-rule:nonzero;stroke:none"
         d="m 4025.72,5976.33 c 6.71,-1.2 13.43,-2.42 20.13,-3.67 8.06,-1.5 16.11,-3.06 24.15,-4.65 6.69,-1.32 13.38,-2.64 20.05,-4.02 8.07,-1.66 16.13,-3.39 24.18,-5.14 6.58,-1.42 13.17,-2.85 19.73,-4.33 8.14,-1.84 16.26,-3.75 24.37,-5.67 6.46,-1.53 12.92,-3.04 19.36,-4.62 8.25,-2.02 16.47,-4.14 24.7,-6.25 6.26,-1.6 12.52,-3.18 18.77,-4.83 8.51,-2.26 16.98,-4.62 25.46,-6.97 5.92,-1.65 11.86,-3.24 17.77,-4.93 9.25,-2.64 18.46,-5.4 27.68,-8.15 5.08,-1.52 10.19,-2.98 15.27,-4.53 13.28,-4.06 26.53,-8.25 39.74,-12.55 2,-0.65 4,-1.3 6,-1.96 13.1,-4.29 26.16,-8.68 39.18,-13.2 5.03,-1.75 10.03,-3.59 15.05,-5.37 9.04,-3.21 18.09,-6.4 27.1,-9.72 5.76,-2.12 11.48,-4.33 17.22,-6.49 8.24,-3.11 16.49,-6.2 24.69,-9.4 6,-2.34 11.97,-4.76 17.96,-7.14 7.9,-3.16 15.8,-6.3 23.67,-9.54 6.1,-2.51 12.18,-5.09 18.27,-7.66 7.7,-3.24 15.4,-6.49 23.07,-9.81 6.14,-2.67 12.26,-5.38 18.38,-8.1 7.57,-3.36 15.14,-6.73 22.68,-10.17 6.11,-2.79 12.2,-5.62 18.3,-8.46 7.52,-3.5 15.02,-7.03 22.51,-10.62 6.04,-2.89 12.07,-5.82 18.09,-8.76 3.75,-1.83 7.52,-3.6 11.25,-5.45 l 141,278.32 c -236.04,117.31 -487.27,199.28 -747.44,243.9 l -50.48,-307.74 0,0 -0.02,-0.11 c 4.06,-0.7 8.1,-1.49 12.16,-2.21" /><path
         id="path50"
         style="fill:#231f20;fill-opacity:1;fill-rule:nonzero;stroke:none"
         d="m 4641.49,1421.88 c -6.11,-2.93 -12.24,-5.84 -18.37,-8.72 -7.45,-3.49 -14.93,-6.94 -22.41,-10.35 -6.17,-2.82 -12.34,-5.62 -18.52,-8.38 -7.53,-3.36 -15.08,-6.66 -22.64,-9.93 -6.17,-2.68 -12.35,-5.37 -18.54,-8 -7.65,-3.24 -15.32,-6.4 -22.99,-9.56 -6.17,-2.54 -12.33,-5.1 -18.52,-7.59 -7.79,-3.13 -15.61,-6.17 -23.43,-9.22 -6.1,-2.38 -12.19,-4.79 -18.31,-7.12 -8.05,-3.07 -16.15,-6.03 -24.23,-9.01 -5.94,-2.18 -11.85,-4.42 -17.8,-6.55 -8.65,-3.11 -17.35,-6.1 -26.04,-9.11 -5.41,-1.88 -10.79,-3.81 -16.22,-5.64 -11.87,-4.02 -23.79,-7.91 -35.73,-11.74 -4.6,-1.47 -9.2,-2.93 -13.8,-4.37 -11.72,-3.69 -23.45,-7.32 -35.22,-10.82 -5.69,-1.69 -11.41,-3.28 -17.11,-4.93 -8.6,-2.49 -17.2,-5 -25.83,-7.39 -6.37,-1.77 -12.76,-3.44 -19.15,-5.15 -8,-2.15 -16,-4.31 -24.03,-6.38 -6.67,-1.71 -13.37,-3.34 -20.05,-5 -7.78,-1.93 -15.56,-3.87 -23.36,-5.72 -6.83,-1.62 -13.67,-3.16 -20.51,-4.72 -7.72,-1.76 -15.44,-3.52 -23.17,-5.2 -6.88,-1.5 -13.78,-2.94 -20.68,-4.38 -7.74,-1.61 -15.49,-3.21 -23.25,-4.75 -6.91,-1.37 -13.83,-2.69 -20.75,-3.99 -7.8,-1.48 -15.61,-2.92 -23.43,-4.32 -6.89,-1.23 -13.8,-2.43 -20.71,-3.6 -3.93,-0.67 -7.85,-1.4 -11.78,-2.05 l 48.08,-308.26 c 259.76,42.449 511.31,122.38 748.4,237.8 l -138.71,279.46 c -3.71,-1.81 -7.46,-3.53 -11.19,-5.31" /><path
         id="path52"
         style="fill:#231f20;fill-opacity:1;fill-rule:nonzero;stroke:none"
         d="m 1210.04,3259.2 c -0.99,6.98 -1.95,13.96 -2.88,20.95 -1.08,8.19 -2.11,16.4 -3.11,24.61 -0.85,6.94 -1.69,13.88 -2.48,20.83 -0.94,8.33 -1.81,16.68 -2.67,25.02 -0.71,6.85 -1.42,13.7 -2.06,20.55 -0.81,8.51 -1.52,17.03 -2.24,25.55 -0.56,6.72 -1.14,13.44 -1.65,20.17 -0.66,8.74 -1.22,17.49 -1.78,26.23 -0.42,6.52 -0.88,13.03 -1.25,19.55 -0.52,9.15 -0.92,18.31 -1.34,27.47 -0.27,6.11 -0.6,12.22 -0.83,18.33 -0.39,10.15 -0.64,20.29 -0.89,30.44 -0.13,5.12 -0.33,10.24 -0.42,15.35 -0.29,15.26 -0.45,30.51 -0.45,45.75 0,13.9 0.13,27.82 0.38,41.76 0.08,4.66 0.24,9.32 0.35,13.98 0.21,9.28 0.43,18.55 0.75,27.83 0.2,5.61 0.47,11.23 0.71,16.84 0.35,8.36 0.69,16.73 1.12,25.09 0.31,5.98 0.7,11.95 1.05,17.92 0.48,8.01 0.95,16.01 1.51,24.02 0.42,6.17 0.91,12.33 1.39,18.49 0.6,7.83 1.21,15.65 1.88,23.47 0.54,6.25 1.14,12.49 1.72,18.73 0.73,7.76 1.49,15.51 2.29,23.26 0.65,6.24 1.34,12.48 2.03,18.72 0.87,7.75 1.76,15.5 2.7,23.24 0.75,6.19 1.53,12.37 2.33,18.56 0.46,3.62 0.88,7.26 1.36,10.88 l -308.736,44.67 C 882.391,3845.57 874.066,3722.07 874.066,3600 c 0,-134.18 9.926,-269.24 29.52,-401.86 l 308.164,48.61 c -0.61,4.14 -1.13,8.3 -1.71,12.45" /><path
         id="path54"
         style="fill:#231f20;fill-opacity:1;fill-rule:nonzero;stroke:none"
         d="m 5536.41,1681.54 c 196.76,198.56 361,424.62 488.61,672.53 l -278.61,140.17 -0.01,0 -0.09,0.05 c -2.13,-4.12 -4.34,-8.18 -6.48,-12.28 -3.29,-6.28 -6.6,-12.56 -9.94,-18.81 -4.15,-7.76 -8.36,-15.49 -12.59,-23.2 -3.37,-6.15 -6.75,-12.3 -10.18,-18.42 -4.35,-7.77 -8.77,-15.5 -13.21,-23.22 -3.43,-5.97 -6.85,-11.95 -10.33,-17.89 -4.6,-7.84 -9.28,-15.64 -13.97,-23.43 -3.44,-5.73 -6.86,-11.47 -10.35,-17.16 -4.92,-8.03 -9.93,-15.99 -14.94,-23.95 -3.38,-5.38 -6.73,-10.79 -10.15,-16.14 -5.38,-8.39 -10.86,-16.72 -16.34,-25.05 -3.18,-4.84 -6.32,-9.71 -9.54,-14.53 -6.29,-9.42 -12.7,-18.75 -19.12,-28.08 -2.51,-3.64 -4.97,-7.33 -7.5,-10.96 -18.1,-25.97 -36.71,-51.59 -55.82,-76.83 -2.63,-3.48 -5.34,-6.91 -7.99,-10.37 -6.94,-9.06 -13.88,-18.11 -20.95,-27.07 -3.51,-4.45 -7.1,-8.85 -10.65,-13.28 -6.31,-7.9 -12.63,-15.8 -19.04,-23.62 -3.96,-4.83 -8,-9.6 -12,-14.4 -6.1,-7.32 -12.2,-14.64 -18.4,-21.89 -4.27,-5.01 -8.61,-9.96 -12.93,-14.93 -6.05,-6.98 -12.11,-13.95 -18.25,-20.86 -4.48,-5.05 -9.02,-10.05 -13.55,-15.06 -6.08,-6.73 -12.18,-13.45 -18.34,-20.12 -4.67,-5.06 -9.39,-10.08 -14.11,-15.11 -6.14,-6.53 -12.3,-13.04 -18.51,-19.5 -4.83,-5.03 -9.69,-10.03 -14.57,-15.02 -3.3,-3.38 -6.54,-6.81 -9.86,-10.16 l 0.07,-0.08 0,-0.01 219.64,-221.32" /><path
         id="path56"
         style="fill:#231f20;fill-opacity:1;fill-rule:nonzero;stroke:none"
         d="m 1855.31,1931.77 c -5.61,5.86 -11.17,11.75 -16.71,17.66 -4.97,5.29 -9.92,10.59 -14.84,15.93 -5.54,6.01 -11.02,12.07 -16.5,18.14 -4.81,5.33 -9.63,10.65 -14.39,16.03 -5.5,6.19 -10.92,12.44 -16.35,18.69 -4.63,5.33 -9.28,10.64 -13.86,16.01 -5.5,6.45 -10.93,12.96 -16.37,19.47 -4.38,5.24 -8.78,10.46 -13.12,15.74 -5.64,6.87 -11.2,13.82 -16.77,20.76 -4.01,4.99 -8.06,9.96 -12.03,14.98 -6.11,7.74 -12.11,15.55 -18.13,23.36 -3.32,4.31 -6.69,8.58 -9.98,12.91 -8.77,11.54 -17.42,23.17 -25.98,34.86 -1.08,1.48 -2.15,2.95 -3.22,4.43 -8.38,11.5 -16.66,23.07 -24.83,34.72 -3.05,4.35 -6.02,8.76 -9.04,13.13 -5.68,8.22 -11.37,16.43 -16.95,24.72 -3.44,5.1 -6.79,10.26 -10.19,15.39 -5.06,7.64 -10.13,15.27 -15.1,22.97 -3.52,5.45 -6.97,10.95 -10.44,16.43 -4.73,7.46 -9.47,14.91 -14.12,22.42 -3.51,5.67 -6.95,11.38 -10.42,17.08 -4.5,7.4 -9,14.81 -13.42,22.27 -3.45,5.82 -6.85,11.67 -10.25,17.52 -4.32,7.42 -8.62,14.84 -12.85,22.31 -3.37,5.92 -6.68,11.88 -10,17.83 -4.16,7.48 -8.3,14.97 -12.38,22.5 -3.26,6 -6.48,12.01 -9.68,18.04 -2.07,3.88 -4.2,7.73 -6.24,11.63 l -0.1,-0.05 0,0 -46.78,-23.94 -230.88,-118.12 c 125.3,-239.4 285.19,-458.41 475.63,-651.51 l 220.16,220.82 0.08,0.08 c -2.9,2.95 -5.73,5.95 -8.62,8.91 -5.13,5.28 -10.25,10.56 -15.33,15.88" /><path
         id="path58"
         style="fill:#231f20;fill-opacity:1;fill-rule:nonzero;stroke:none"
         d="m 3173.7,1223.77 c -6.35,1.13 -12.7,2.28 -19.03,3.46 -8.46,1.58 -16.91,3.21 -25.34,4.88 -6.32,1.25 -12.63,2.5 -18.93,3.8 -8.46,1.74 -16.91,3.55 -25.35,5.39 -6.22,1.35 -12.45,2.69 -18.66,4.09 -8.53,1.92 -17.03,3.93 -25.53,5.94 -6.08,1.45 -12.17,2.86 -18.24,4.35 -8.66,2.13 -17.3,4.35 -25.94,6.57 -5.86,1.51 -11.74,2.98 -17.59,4.53 -9.03,2.4 -18.04,4.9 -27.04,7.41 -5.39,1.49 -10.8,2.94 -16.18,4.48 -10.09,2.88 -20.14,5.88 -30.18,8.89 -4.26,1.28 -8.54,2.49 -12.8,3.79 -28.62,8.75 -57.07,18.04 -85.33,27.85 -4.38,1.52 -8.72,3.12 -13.08,4.66 -9.71,3.44 -19.42,6.88 -29.08,10.44 -5.39,1.98 -10.74,4.05 -16.11,6.07 -8.6,3.24 -17.2,6.47 -25.76,9.8 -5.77,2.25 -11.52,4.59 -17.28,6.88 -8.13,3.24 -16.26,6.48 -24.35,9.81 -5.93,2.44 -11.83,4.95 -17.74,7.44 -7.87,3.31 -15.74,6.63 -23.57,10.03 -6.03,2.61 -12.03,5.28 -18.03,7.94 -7.68,3.41 -15.36,6.83 -23.01,10.32 -6.04,2.75 -12.06,5.55 -18.08,8.35 -7.57,3.53 -15.13,7.09 -22.66,10.7 -6.03,2.88 -12.04,5.8 -18.04,8.74 -3.75,1.83 -7.53,3.6 -11.27,5.45 l -0.05,-0.1 0,0 -140.95,-278.22 c 236.06,-117.31 487.28,-199.291 747.44,-243.908 l 50.48,307.748 0,0 0.01,0.1 c -4.25,0.74 -8.48,1.56 -12.73,2.32" /><path
         id="path60"
         style="fill:#231f20;fill-opacity:1;fill-rule:nonzero;stroke:none"
         d="m 3356.21,5313.26 0.02,-0.15 c 1.19,0.17 2.39,0.27 3.58,0.44 17.21,2.38 34.48,4.5 51.78,6.37 3.7,0.4 7.4,0.78 11.1,1.15 16.83,1.71 33.68,3.22 50.57,4.43 4.33,0.32 8.66,0.56 13,0.84 14.76,0.96 29.54,1.75 44.34,2.33 6.43,0.26 12.85,0.45 19.27,0.63 12.33,0.35 24.67,0.56 37.01,0.65 4.37,0.04 8.75,0.23 13.12,0.23 36.34,0 72.79,-1.22 109.23,-3.52 0.11,-0.01 0.22,-0.02 0.33,-0.02 10.59,-0.67 21.18,-1.44 31.77,-2.3 1.78,-0.15 3.57,-0.3 5.36,-0.45 8.85,-0.75 17.69,-1.56 26.53,-2.44 3.12,-0.31 6.24,-0.63 9.35,-0.96 7.54,-0.79 15.07,-1.64 22.6,-2.53 4.05,-0.48 8.09,-0.96 12.13,-1.47 6.68,-0.84 13.35,-1.73 20.01,-2.64 4.62,-0.64 9.24,-1.27 13.85,-1.94 2.01,-0.29 4.03,-0.54 6.03,-0.84 l 35.05,213.67 68.16,415.57 c -232.56,35.53 -471.15,36.31 -702.44,2.85 l 98.24,-629.9 0.01,0" /><path
         id="path62"
         style="fill:#231f20;fill-opacity:1;fill-rule:nonzero;stroke:none"
         d="m 1932.45,4062.3 c 5.3,19.19 10.87,38.31 16.84,57.3 l 0.01,0 c 5.97,19.01 12.34,37.89 18.98,56.68 0.66,1.87 1.3,3.76 1.97,5.64 6.37,17.85 13.09,35.58 20.06,53.22 1.05,2.67 2.09,5.35 3.16,8.02 6.91,17.23 14.12,34.36 21.59,51.38 1.25,2.86 2.52,5.72 3.79,8.57 7.57,16.99 15.4,33.87 23.53,50.64 0.51,1.07 0.98,2.16 1.5,3.23 l -0.14,0.07 -569.54,286.53 c -105.85,-215.19 -177.87,-444.29 -214.27,-681.61 l 57.24,-8.29 573.82,-83.02 c 0.19,1.24 0.46,2.46 0.65,3.7 2.92,18.31 6.14,36.54 9.64,54.71 0.61,3.17 1.23,6.34 1.86,9.51 3.6,18.17 7.47,36.27 11.65,54.29 0.67,2.87 1.37,5.73 2.05,8.59 4.37,18.42 8.99,36.77 13.97,55.01 0.53,1.95 1.1,3.88 1.64,5.83" /><path
         id="path64"
         style="fill:#231f20;fill-opacity:1;fill-rule:nonzero;stroke:none"
         d="m 5935.4,3991.76 c -38.66,232.17 -111.46,456.09 -216.63,666.28 l -567.74,-290.47 c 0.5,-1.02 0.95,-2.05 1.45,-3.07 8.08,-16.38 15.88,-32.88 23.42,-49.48 1.27,-2.79 2.53,-5.59 3.79,-8.39 7.44,-16.63 14.64,-33.35 21.55,-50.19 1.07,-2.61 2.11,-5.22 3.16,-7.83 6.98,-17.24 13.72,-34.56 20.12,-52.01 0.68,-1.83 1.31,-3.67 1.98,-5.51 13.35,-36.73 25.43,-73.9 36.24,-111.47 0.53,-1.85 1.09,-3.69 1.62,-5.54 5.08,-17.9 9.83,-35.9 14.33,-53.96 0.68,-2.72 1.38,-5.44 2.04,-8.17 4.32,-17.7 8.34,-35.48 12.1,-53.34 0.63,-2.99 1.26,-5.99 1.87,-8.99 3.67,-17.88 7.07,-35.83 10.18,-53.86 0.19,-1.12 0.44,-2.22 0.63,-3.34 l 0.15,0.02 0,0 629.74,99.32" /><path
         id="path66"
         style="fill:#231f20;fill-opacity:1;fill-rule:nonzero;stroke:none"
         d="m 4402.64,5133.07 c 7.56,-3.97 14.95,-8.22 22.45,-12.3 8.12,-4.41 16.26,-8.77 24.3,-13.3 11.41,-6.45 22.68,-13.14 33.94,-19.83 7.48,-4.45 15.01,-8.8 22.42,-13.35 12.25,-7.54 24.3,-15.37 36.35,-23.2 6.21,-4.04 12.5,-7.93 18.65,-12.04 17.53,-11.72 34.85,-23.74 51.94,-36.09 0.92,-0.67 1.85,-1.33 2.77,-2 17.18,-12.48 34.13,-25.29 50.85,-38.39 5.8,-4.55 11.44,-9.31 17.18,-13.93 11.24,-9.04 22.47,-18.08 33.49,-27.41 6.62,-5.61 13.09,-11.41 19.64,-17.12 9.91,-8.64 19.8,-17.29 29.52,-26.17 6.82,-6.22 13.5,-12.6 20.22,-18.94 6.23,-5.88 12.6,-11.6 18.76,-17.57 l 0.11,0.1 0,0 49.99,50.13 400.09,401.27 c -167.46,163.76 -357.17,301.23 -564.46,409.01 l -288.21,-568.87" /><path
         id="path68"
         style="fill:#231f20;fill-opacity:1;fill-rule:nonzero;stroke:none"
         d="m 2397.74,4844.36 0.11,-0.11 c 0.86,0.83 1.77,1.62 2.64,2.46 13.33,12.83 26.86,25.42 40.56,37.79 2.35,2.12 4.71,4.24 7.07,6.35 13.78,12.31 27.72,24.4 41.86,36.24 2.22,1.85 4.45,3.68 6.67,5.52 14.52,12.03 29.19,23.87 44.08,35.41 1.58,1.22 3.18,2.42 4.77,3.64 31.42,24.19 63.64,47.27 96.63,69.23 1.63,1.09 3.25,2.21 4.89,3.29 15.74,10.4 31.68,20.5 47.76,30.39 2.42,1.49 4.83,2.99 7.26,4.46 15.78,9.6 31.73,18.92 47.82,28.01 2.71,1.53 5.43,3.06 8.14,4.57 16.15,9.01 32.44,17.78 48.89,26.28 1.04,0.54 2.06,1.13 3.1,1.66 l -0.07,0.14 0,0 -283.45,571.06 C 2314.06,5602.54 2119.9,5463.41 1948.75,5296.8 l 448.99,-452.45 0,0.01" /><path
         id="path70"
         style="fill:#231f20;fill-opacity:1;fill-rule:nonzero;stroke:none"
         d="m 4802.16,2355.75 c -0.93,-0.9 -1.9,-1.74 -2.83,-2.64 -13.21,-12.71 -26.62,-25.18 -40.19,-37.45 -2.47,-2.23 -4.94,-4.45 -7.42,-6.66 -13.67,-12.21 -27.51,-24.2 -41.54,-35.95 -2.33,-1.96 -4.69,-3.89 -7.03,-5.83 -14.41,-11.95 -28.97,-23.69 -43.75,-35.15 -1.69,-1.31 -3.42,-2.6 -5.12,-3.91 -15.53,-11.95 -31.22,-23.69 -47.15,-35.11 -0.17,-0.12 -0.35,-0.25 -0.52,-0.37 -15.95,-11.42 -32.12,-22.51 -48.45,-33.38 -1.77,-1.18 -3.52,-2.39 -5.29,-3.56 -15.64,-10.34 -31.49,-20.37 -47.46,-30.2 -2.52,-1.54 -5.03,-3.11 -7.55,-4.64 -15.71,-9.55 -31.58,-18.83 -47.61,-27.88 -2.77,-1.57 -5.56,-3.14 -8.34,-4.69 -16.1,-8.98 -32.35,-17.73 -48.76,-26.2 -1.05,-0.55 -2.08,-1.14 -3.13,-1.69 l 283.52,-571.19 c 212.39,108.21 406.55,247.33 577.71,413.94 l -258.16,260.15 -190.93,192.41" /><path
         id="path72"
         style="fill:#231f20;fill-opacity:1;fill-rule:nonzero;stroke:none"
         d="m 3843.78,1886.89 c -0.96,-0.13 -1.93,-0.22 -2.89,-0.35 -18.33,-2.55 -36.73,-4.79 -55.18,-6.76 -2.51,-0.27 -5,-0.54 -7.51,-0.79 -18.78,-1.92 -37.6,-3.54 -56.46,-4.85 -1.78,-0.13 -3.56,-0.24 -5.33,-0.36 -19.82,-1.32 -39.67,-2.32 -59.51,-2.97 -0.34,-0.01 -0.68,-0.02 -1.02,-0.03 -18.64,-0.6 -37.27,-0.97 -55.88,-0.97 -43.32,0 -86.82,1.72 -130.24,4.98 -0.99,0.07 -1.98,0.13 -2.97,0.21 -19.04,1.46 -38.06,3.27 -57.04,5.35 -2.91,0.32 -5.81,0.64 -8.72,0.97 -18.14,2.09 -36.24,4.44 -54.29,7.09 -1.31,0.19 -2.63,0.32 -3.93,0.51 l -42.06,-256.38 -61.15,-372.85 c 232.67,-35.56 471.22,-36.3 702.44,-2.86 l -72.79,466.74 -25.47,163.32" /><path
         id="path74"
         style="fill:#231f20;fill-opacity:1;fill-rule:nonzero;stroke:none"
         d="m 2047.53,2835.49 c -8.08,16.38 -15.88,32.87 -23.42,49.47 -1.27,2.8 -2.54,5.61 -3.8,8.42 -7.44,16.61 -14.63,33.33 -21.53,50.15 -1.08,2.62 -2.13,5.25 -3.19,7.88 -6.97,17.23 -13.7,34.54 -20.1,51.97 -0.68,1.84 -1.32,3.7 -1.99,5.54 -13.34,36.7 -25.41,73.84 -36.21,111.38 -0.55,1.89 -1.12,3.76 -1.65,5.65 -5.08,17.87 -9.82,35.85 -14.32,53.9 -0.68,2.74 -1.38,5.48 -2.05,8.22 -4.32,17.69 -8.34,35.47 -12.1,53.32 -0.63,2.99 -1.26,5.98 -1.87,8.98 -3.67,17.88 -7.07,35.83 -10.18,53.85 -0.19,1.13 -0.44,2.24 -0.63,3.36 l -629.88,-99.35 c 38.65,-232.15 111.45,-456.07 216.63,-666.27 l 267.17,136.69 300.57,153.78 c -0.5,1.01 -0.95,2.05 -1.45,3.06" /><path
         id="path76"
         style="fill:#231f20;fill-opacity:1;fill-rule:nonzero;stroke:none"
         d="m 5725.8,2556.41 c 105.85,215.2 177.87,444.3 214.28,681.61 l -630.91,91.29 0,0 -0.16,0.02 c -0.19,-1.22 -0.45,-2.43 -0.64,-3.66 -2.92,-18.33 -6.15,-36.58 -9.65,-54.77 -0.61,-3.15 -1.22,-6.3 -1.84,-9.44 -3.61,-18.2 -7.49,-36.32 -11.68,-54.37 -0.66,-2.84 -1.35,-5.67 -2.02,-8.5 -4.38,-18.45 -9.01,-36.83 -13.99,-55.11 -0.52,-1.9 -1.08,-3.79 -1.61,-5.68 -10.64,-38.5 -22.61,-76.6 -35.91,-114.25 -0.64,-1.79 -1.24,-3.6 -1.88,-5.39 -6.4,-17.93 -13.15,-35.74 -20.15,-53.47 -1.02,-2.58 -2.03,-5.16 -3.06,-7.74 -6.93,-17.3 -14.17,-34.49 -21.67,-51.58 -1.23,-2.8 -2.47,-5.61 -3.72,-8.41 -7.58,-17.02 -15.42,-33.93 -23.56,-50.73 -0.52,-1.06 -0.98,-2.15 -1.5,-3.22 l 0.14,-0.07 0,0 569.53,-286.53" /><path
         id="path78"
         style="fill:#231f20;fill-opacity:1;fill-rule:nonzero;stroke:none"
         d="m 2611.73,1700.52 185.63,366.41 c -7.74,4.06 -15.31,8.41 -22.99,12.59 -7.86,4.28 -15.76,8.5 -23.56,12.9 -11.65,6.58 -23.15,13.4 -34.64,20.24 -7.27,4.32 -14.59,8.54 -21.79,12.97 -12.52,7.7 -24.84,15.7 -37.15,23.71 -5.94,3.86 -11.98,7.59 -17.87,11.53 -36.19,24.19 -71.45,49.74 -105.73,76.61 -5.63,4.41 -11.1,9.02 -16.67,13.5 -11.4,9.17 -22.79,18.35 -33.97,27.81 -6.55,5.55 -12.95,11.29 -19.42,16.93 -9.99,8.71 -19.97,17.43 -29.76,26.38 -6.76,6.18 -13.4,12.51 -20.07,18.8 -6.27,5.91 -12.67,11.66 -18.86,17.67 L 2156.06,2119.05 1944.7,1907.08 c 167.44,-163.77 357.15,-301.23 564.46,-409.03 l 102.57,202.47" /><path
         id="path80"
         style="fill:#231f20;fill-opacity:1;fill-rule:nonzero;stroke:none"
         d="m 2965.65,4975 c 6.94,3.21 13.87,6.44 20.85,9.54 10.31,4.58 20.7,8.95 31.11,13.29 6.62,2.77 13.22,5.61 19.88,8.28 11.57,4.64 23.23,9.01 34.91,13.35 5.57,2.08 11.09,4.27 16.68,6.28 34.64,12.42 69.72,23.57 105.16,33.41 5.73,1.59 11.51,2.99 17.26,4.51 12.04,3.19 24.09,6.35 36.21,9.24 6.93,1.65 13.91,3.13 20.87,4.69 11.02,2.46 22.05,4.89 33.14,7.1 7.44,1.49 14.92,2.84 22.39,4.22 6.56,1.21 13.09,2.58 19.67,3.71 l -23.24,149.02 -2.91,18.66 C 3163.15,5234.22 3013.46,5186.66 2872,5118.71 l 75.46,-152.03 c 6.02,2.88 12.14,5.53 18.19,8.32" /><path
         id="path82"
         style="fill:#231f20;fill-opacity:1;fill-rule:nonzero;stroke:none"
         d="m 2100.69,3386.94 c -0.94,6.75 -1.63,13.54 -2.49,20.3 -1,7.82 -2.01,15.62 -2.89,23.47 -1.27,11.4 -2.31,22.82 -3.33,34.26 -0.65,7.36 -1.38,14.69 -1.93,22.06 -0.94,12.65 -1.59,25.3 -2.21,37.97 -0.31,6.18 -0.75,12.35 -0.98,18.53 -0.7,18.84 -1.1,37.67 -1.1,56.47 0,17.12 0.34,34.29 0.93,51.48 0.19,5.66 0.56,11.33 0.82,17 0.52,11.56 1.08,23.11 1.86,34.68 0.46,6.71 1.07,13.41 1.61,20.12 0.86,10.55 1.75,21.07 2.83,31.6 0.72,7.06 1.54,14.1 2.36,21.15 0.69,5.96 1.24,11.94 2,17.89 l -0.17,0.03 -167.78,24.27 c -9.38,-72.43 -14.13,-145.72 -14.13,-218.22 0,-79.95 5.7,-160.4 16.96,-239.49 l 167.64,26.43" /><path
         id="path84"
         style="fill:#231f20;fill-opacity:1;fill-rule:nonzero;stroke:none"
         d="m 4699.67,4640.64 c 5.44,-5.74 10.89,-11.47 16.24,-17.29 7.8,-8.5 15.42,-17.14 23.01,-25.8 4.91,-5.59 9.88,-11.13 14.7,-16.79 8.22,-9.65 16.21,-19.49 24.18,-29.34 3.92,-4.84 7.95,-9.6 11.8,-14.49 11.7,-14.82 23.15,-29.82 34.27,-45.06 0.12,-0.16 0.23,-0.33 0.35,-0.49 11,-15.08 21.68,-30.38 32.11,-45.86 3.52,-5.21 6.85,-10.54 10.3,-15.8 6.91,-10.52 13.79,-21.06 20.44,-31.75 3.94,-6.35 7.72,-12.81 11.57,-19.22 5.88,-9.8 11.74,-19.61 17.41,-29.55 3.93,-6.89 7.73,-13.85 11.55,-20.8 3.31,-6.03 6.78,-11.97 10.01,-18.05 l 101.65,52.01 49.46,25.31 c -75.41,142.24 -170.64,272.68 -283.51,388.31 l -119.68,-120.04 0,0 -0.12,-0.12 c 4.84,-4.98 9.48,-10.14 14.26,-15.18" /><path
         id="path86"
         style="fill:#231f20;fill-opacity:1;fill-rule:nonzero;stroke:none"
         d="m 3887.53,5086.64 c 7.54,-1.45 15.07,-2.87 22.58,-4.44 11.05,-2.29 22.04,-4.8 33.02,-7.35 7,-1.62 14.02,-3.16 21,-4.88 12.11,-2.99 24.15,-6.25 36.18,-9.53 5.74,-1.57 11.52,-3.01 17.24,-4.65 35.43,-10.14 70.46,-21.57 105.04,-34.28 5.56,-2.04 11.06,-4.28 16.6,-6.39 11.67,-4.45 23.33,-8.93 34.9,-13.67 6.6,-2.7 13.13,-5.58 19.69,-8.38 10.41,-4.44 20.8,-8.91 31.12,-13.59 6.92,-3.14 13.79,-6.41 20.67,-9.66 6.05,-2.86 12.17,-5.55 18.19,-8.49 l 76.7,151.4 c -140.85,69.08 -290.36,117.87 -445.08,145.24 l -27.44,-167.3 0,0 -0.03,-0.18 c 6.57,-1.17 13.08,-2.59 19.62,-3.85" /><path
         id="path88"
         style="fill:#231f20;fill-opacity:1;fill-rule:nonzero;stroke:none"
         d="m 2397.6,4778.8 c -116.73,-119.04 -214.68,-253.85 -291.55,-401.29 l 151.46,-76.2 0,0 0.15,-0.08 c 3.38,6.46 7.01,12.76 10.48,19.16 3.86,7.12 7.68,14.26 11.65,21.31 5.86,10.41 11.93,20.68 18.02,30.94 3.86,6.49 7.63,13.03 11.59,19.46 6.92,11.26 14.1,22.35 21.31,33.42 3.41,5.23 6.69,10.55 10.16,15.74 21.64,32.33 44.51,63.82 68.58,94.4 3.98,5.06 8.15,9.97 12.19,14.98 8.19,10.13 16.39,20.25 24.85,30.18 5,5.87 10.16,11.61 15.26,17.41 7.78,8.86 15.57,17.7 23.57,26.39 5.56,6.05 11.26,11.99 16.92,17.95 4.99,5.25 9.82,10.61 14.89,15.79 l -0.13,0.13 0,0 -119.4,120.31" /><path
         id="path90"
         style="fill:#231f20;fill-opacity:1;fill-rule:nonzero;stroke:none"
         d="m 2433.17,2462.52 81.43,81.66 c -4.75,4.87 -9.28,9.92 -13.96,14.85 -5.59,5.9 -11.2,11.79 -16.69,17.77 -7.64,8.33 -15.11,16.8 -22.55,25.29 -5.04,5.74 -10.15,11.43 -15.1,17.24 -8.06,9.47 -15.89,19.11 -23.71,28.77 -4.07,5.03 -8.25,9.97 -12.25,15.04 -11.47,14.55 -22.7,29.27 -33.62,44.21 -0.5,0.69 -1,1.38 -1.5,2.07 -10.79,14.81 -21.29,29.84 -31.54,45.03 -3.52,5.23 -6.86,10.58 -10.32,15.85 -6.91,10.52 -13.79,21.06 -20.44,31.75 -3.91,6.31 -7.66,12.72 -11.49,19.09 -5.92,9.85 -11.81,19.71 -17.51,29.7 -3.89,6.83 -7.66,13.74 -11.45,20.63 -3.33,6.07 -6.82,12.05 -10.08,18.17 l -0.15,-0.08 0,0 -150.95,-77.24 c 75.4,-142.23 170.63,-272.68 283.5,-388.3 l 38.38,38.5" /><path
         id="path92"
         style="fill:#231f20;fill-opacity:1;fill-rule:nonzero;stroke:none"
         d="m 4697.71,2526.69 104.7,-105.49 c 116.72,119.03 214.67,253.84 291.55,401.29 l -151.46,76.2 0,0 -0.16,0.07 c -3.37,-6.44 -6.99,-12.73 -10.45,-19.11 -3.87,-7.15 -7.71,-14.31 -11.69,-21.39 -5.83,-10.35 -11.87,-20.57 -17.93,-30.77 -3.89,-6.55 -7.7,-13.16 -11.69,-19.65 -6.85,-11.14 -13.95,-22.1 -21.08,-33.05 -3.49,-5.36 -6.85,-10.8 -10.41,-16.12 -10.78,-16.1 -21.82,-32.03 -33.21,-47.71 -0.04,-0.05 -0.07,-0.1 -0.11,-0.15 -11.42,-15.72 -23.18,-31.19 -35.21,-46.47 -3.99,-5.06 -8.16,-9.99 -12.21,-15 -8.19,-10.13 -16.4,-20.25 -24.85,-30.18 -4.97,-5.83 -10.1,-11.53 -15.15,-17.29 -7.83,-8.91 -15.67,-17.8 -23.71,-26.54 -5.51,-5.99 -11.15,-11.88 -16.77,-17.79 -5.02,-5.28 -9.89,-10.69 -14.99,-15.9 l 0.12,-0.12 0,0 14.71,-14.83" /><path
         id="path94"
         style="fill:#231f20;fill-opacity:1;fill-rule:nonzero;stroke:none"
         d="m 5269.78,3381.77 c 9.39,72.44 14.13,145.73 14.13,218.23 0,79.92 -5.7,160.37 -16.96,239.49 l -167.64,-26.44 c 0.95,-6.75 1.64,-13.55 2.5,-20.31 0.99,-7.83 2.01,-15.65 2.89,-23.5 1.26,-11.34 2.3,-22.7 3.31,-34.08 0.66,-7.42 1.4,-14.83 1.95,-22.27 0.93,-12.57 1.58,-25.15 2.2,-37.73 0.31,-6.25 0.75,-12.48 0.98,-18.73 0.7,-18.82 1.1,-37.64 1.1,-56.43 0,-17.12 -0.34,-34.29 -0.92,-51.48 -0.2,-5.68 -0.57,-11.36 -0.82,-17.03 -0.53,-11.55 -1.08,-23.1 -1.87,-34.65 -0.46,-6.72 -1.06,-13.43 -1.61,-20.15 -0.85,-10.53 -1.75,-21.05 -2.82,-31.57 -0.72,-7.07 -1.55,-14.12 -2.37,-21.18 -0.69,-5.95 -1.24,-11.92 -2,-17.86 l 0.18,-0.03 0,0 167.77,-24.28" /><path
         id="path96"
         style="fill:#231f20;fill-opacity:1;fill-rule:nonzero;stroke:none"
         d="m 4234.42,2225.03 c -6.98,-3.23 -13.95,-6.48 -20.97,-9.6 -10.25,-4.54 -20.57,-8.89 -30.9,-13.2 -6.7,-2.8 -13.36,-5.67 -20.09,-8.36 -11.41,-4.57 -22.91,-8.88 -34.42,-13.17 -5.74,-2.14 -11.44,-4.4 -17.21,-6.47 -17.29,-6.21 -34.68,-12.14 -52.18,-17.7 -0.08,-0.02 -0.17,-0.05 -0.26,-0.08 -17.44,-5.53 -34.98,-10.71 -52.61,-15.6 -5.76,-1.6 -11.58,-3.01 -17.37,-4.54 -12.01,-3.18 -24.02,-6.33 -36.12,-9.21 -6.92,-1.66 -13.89,-3.13 -20.84,-4.69 -11.04,-2.46 -22.09,-4.9 -33.18,-7.11 -7.43,-1.49 -14.89,-2.84 -22.35,-4.21 -6.57,-1.21 -13.11,-2.59 -19.7,-3.71 l 10.59,-67.87 15.57,-99.82 c 154.5,26.09 304.18,73.65 445.63,141.6 l -75.47,152.03 c -5.99,-2.87 -12.09,-5.5 -18.12,-8.29" /><path
         id="path98"
         style="fill:#231f20;fill-opacity:1;fill-rule:nonzero;stroke:none"
         d="m 3312.43,2113.36 c -7.52,1.45 -15.05,2.87 -22.54,4.43 -11.04,2.3 -22.01,4.8 -32.98,7.34 -7.03,1.63 -14.07,3.18 -21.07,4.91 -12.03,2.97 -23.99,6.2 -35.94,9.47 -5.83,1.59 -11.7,3.05 -17.5,4.71 -35.4,10.13 -70.4,21.55 -104.95,34.25 -5.66,2.09 -11.26,4.36 -16.91,6.52 -11.57,4.41 -23.12,8.84 -34.58,13.54 -6.66,2.73 -13.25,5.63 -19.87,8.46 -10.35,4.42 -20.69,8.86 -30.95,13.52 -6.96,3.16 -13.87,6.44 -20.79,9.71 -6.02,2.85 -12.11,5.53 -18.1,8.46 l -0.08,-0.16 0,0 -76.63,-151.26 c 140.85,-69.07 290.36,-117.85 445.08,-145.24 l 27.44,167.3 0,0 0.03,0.18 c -6.58,1.17 -13.1,2.6 -19.66,3.86" /><path
         id="path100"
         style="fill:#231f20;fill-opacity:1;fill-rule:nonzero;stroke:none"
         d="m 2150.54,3833.1 477,-69.02 645.76,-93.43 c 0.18,0.83 0.41,1.65 0.59,2.48 0.26,1.14 0.55,2.26 0.81,3.38 3.76,16.01 8.7,31.7 14.79,46.98 0.43,1.1 0.85,2.21 1.29,3.31 0.33,0.79 0.61,1.6 0.94,2.39 l -115.17,57.95 -898.37,451.96 c -62.25,-128.49 -105.12,-264.86 -127.64,-406" /><path
         id="path102"
         style="fill:#231f20;fill-opacity:1;fill-rule:nonzero;stroke:none"
         d="m 3291.76,3470.84 c -0.42,0.99 -0.8,2 -1.21,3 -3.07,7.51 -5.94,15.09 -8.44,22.79 -0.02,0.04 -0.03,0.08 -0.04,0.12 -2.5,7.68 -4.65,15.47 -6.58,23.31 -0.25,1.01 -0.53,2.01 -0.77,3.03 -0.16,0.7 -0.37,1.39 -0.53,2.09 L 2153.56,3348.43 c 23.81,-137.94 67.11,-271.13 128.92,-396.53 l 186.11,95.22 824.02,421.6 c -0.3,0.7 -0.55,1.42 -0.85,2.12" /><path
         id="path104"
         style="fill:#231f20;fill-opacity:1;fill-rule:nonzero;stroke:none"
         d="m 3381.56,3852.97 c 0.42,0.36 0.89,0.67 1.32,1.03 14.58,12.47 30.19,23.65 46.72,33.45 0.49,0.29 0.94,0.64 1.43,0.93 L 2926.6,4904.62 c -126.03,-65.16 -241.58,-147.96 -344.03,-246.51 l 798.99,-805.14" /><path
         id="path106"
         style="fill:#231f20;fill-opacity:1;fill-rule:nonzero;stroke:none"
         d="m 3396.64,5053.96 174.83,-1120.92 c 0.74,0.06 1.49,0.08 2.23,0.14 0.88,0.07 1.76,0.11 2.64,0.17 7.88,0.55 15.78,0.9 23.66,0.9 0.33,0 0.67,-0.02 1,-0.03 0.03,0 0.07,0 0.11,0 8.14,-0.03 16.35,-0.42 24.57,-1.06 0.95,-0.07 1.9,-0.12 2.86,-0.2 0.87,-0.07 1.73,-0.1 2.6,-0.18 l 183.61,1119.48 c -138.52,20.32 -280.25,20.79 -418.11,1.7" /><path
         id="path108"
         style="fill:#231f20;fill-opacity:1;fill-rule:nonzero;stroke:none"
         d="m 3772.6,3886.13 c 7.95,-4.79 15.71,-9.85 23.21,-15.27 0.05,-0.04 0.11,-0.08 0.17,-0.11 7.56,-5.48 14.85,-11.31 21.93,-17.39 0.37,-0.32 0.77,-0.59 1.13,-0.9 l 800.92,803.26 c -100.16,96.8 -212.95,178.54 -335.86,243.38 L 3771.33,3886.97 c 0.43,-0.26 0.83,-0.57 1.27,-0.84" /><path
         id="path110"
         style="fill:#231f20;fill-opacity:1;fill-rule:nonzero;stroke:none"
         d="m 5049.46,3366.89 -1122.75,162.46 c -0.18,-0.83 -0.41,-1.64 -0.59,-2.47 -0.26,-1.14 -0.56,-2.28 -0.83,-3.42 -3.75,-16 -8.68,-31.68 -14.77,-46.97 -0.44,-1.09 -0.85,-2.19 -1.29,-3.28 -0.33,-0.8 -0.62,-1.61 -0.95,-2.4 l 115.18,-57.95 898.37,-451.97 c 62.25,128.5 105.11,264.87 127.63,406" /><path
         id="path112"
         style="fill:#231f20;fill-opacity:1;fill-rule:nonzero;stroke:none"
         d="m 3908.24,3729.18 c 0.42,-1.01 0.8,-2.03 1.22,-3.03 3.06,-7.5 5.92,-15.08 8.43,-22.76 0.02,-0.05 0.03,-0.1 0.05,-0.15 2.48,-7.64 4.62,-15.38 6.54,-23.17 0.26,-1.08 0.56,-2.15 0.81,-3.23 0.17,-0.68 0.36,-1.35 0.52,-2.03 l 1120.63,176.75 c -23.81,137.94 -67.1,271.12 -128.92,396.53 L 3907.39,3731.28 c 0.3,-0.7 0.55,-1.41 0.85,-2.1" /><path
         id="path114"
         style="fill:#231f20;fill-opacity:1;fill-rule:nonzero;stroke:none"
         d="m 3427.39,3313.87 c -7.78,4.69 -15.37,9.66 -22.71,14.95 -0.23,0.16 -0.47,0.3 -0.69,0.46 -7.53,5.45 -14.8,11.26 -21.85,17.32 -0.38,0.33 -0.8,0.61 -1.19,0.94 L 2580.04,2544.27 C 2680.2,2447.47 2793,2365.74 2915.9,2300.9 l 512.78,1012.12 c -0.44,0.27 -0.85,0.59 -1.29,0.85" /><path
         id="path116"
         style="fill:#231f20;fill-opacity:1;fill-rule:nonzero;stroke:none"
         d="m 3818.44,3347.03 c -0.43,-0.38 -0.91,-0.7 -1.35,-1.07 -14.57,-12.46 -30.17,-23.62 -46.66,-33.41 -0.5,-0.29 -0.95,-0.64 -1.45,-0.93 l 390.06,-785.84 114.36,-230.4 c 126.04,65.16 241.59,147.96 344.03,246.51 l -798.99,805.14" /><path
         id="path118"
         style="fill:#231f20;fill-opacity:1;fill-rule:nonzero;stroke:none"
         d="m 3803.36,2146.03 -43.7,280.13 -131.13,840.8 c -0.58,-0.05 -1.16,-0.06 -1.74,-0.11 -0.98,-0.08 -1.96,-0.12 -2.94,-0.18 -7.55,-0.55 -15.1,-0.86 -22.68,-0.88 -0.39,0 -0.78,-0.04 -1.17,-0.04 -0.13,0 -0.26,0.01 -0.39,0.01 -8.1,0.02 -16.21,0.39 -24.35,1 -1.21,0.09 -2.41,0.16 -3.62,0.26 -0.93,0.08 -1.85,0.12 -2.78,0.2 l -183.6,-1119.48 c 138.62,-20.33 280.29,-20.78 418.1,-1.71" /><path
         id="path120"
         style="fill:#231f20;fill-opacity:1;fill-rule:nonzero;stroke:none"
         d="m 3750.19,3578.3 c -2.34,-16.31 -7.26,-31.97 -14.6,-46.54 -7.49,-14.84 -17.11,-28.15 -28.62,-39.57 -11.41,-11.31 -24.69,-20.78 -39.46,-28.13 -13.88,-6.9 -28.73,-11.61 -44.15,-14 -8.46,-1.31 -16.1,-1.95 -23.36,-1.95 -7.7,0 -15.72,0.69 -24.53,2.13 -15.46,2.52 -30.29,7.35 -44.09,14.36 -14.46,7.34 -27.45,16.71 -38.61,27.84 -11.16,11.13 -20.55,24.05 -27.9,38.4 -7.28,14.19 -12.25,29.51 -14.77,45.54 -1.34,8.56 -1.99,16.28 -1.99,23.62 0,6.7 0.54,13.59 1.7,21.69 2.34,16.31 7.25,31.97 14.61,46.54 7.48,14.83 17.1,28.14 28.61,39.56 11.4,11.32 24.68,20.79 39.47,28.15 13.88,6.9 28.74,11.61 44.14,14 17.49,2.71 30.75,2.61 47.9,-0.18 15.45,-2.53 30.28,-7.36 44.08,-14.36 3.61,-1.84 7.14,-3.8 10.56,-5.88 10.28,-6.26 19.68,-13.61 28.06,-21.96 2.79,-2.78 5.46,-5.68 8.03,-8.67 7.69,-9 14.35,-18.96 19.87,-29.73 7.28,-14.2 12.25,-29.53 14.76,-45.54 1.34,-8.59 1.99,-16.31 1.99,-23.62 0,-6.71 -0.54,-13.6 -1.7,-21.7 z m 68.47,209.07 c -4.88,5.72 -10,11.23 -15.33,16.55 -16.07,16.02 -33.94,30.04 -53.32,41.87 -6.46,3.94 -13.09,7.64 -19.88,11.08 -19.76,10.04 -40.5,17.71 -61.89,22.91 -7.13,1.74 -14.34,3.2 -21.6,4.38 -15.55,2.53 -31.24,3.81 -46.64,3.81 -14.84,0 -29.78,-1.15 -44.41,-3.41 -21.75,-3.36 -43.01,-9.24 -63.45,-17.52 -6.82,-2.76 -13.54,-5.79 -20.16,-9.09 -27.72,-13.78 -52.89,-31.8 -74.81,-53.56 -22.05,-21.89 -40.37,-47.12 -54.42,-74.99 -14,-27.78 -23.33,-57.43 -27.74,-88.14 -1.98,-13.82 -2.99,-27.7 -2.99,-41.26 0,-14.96 1.18,-30.06 3.5,-44.89 4.69,-29.98 14.15,-58.99 28.13,-86.25 10.39,-20.27 23.02,-39.11 37.69,-56.24 4.89,-5.71 10,-11.22 15.33,-16.54 16.05,-16.01 33.92,-30.03 53.32,-41.87 6.47,-3.95 13.1,-7.65 19.9,-11.1 19.77,-10.03 40.51,-17.7 61.89,-22.9 7.13,-1.74 14.33,-3.19 21.58,-4.37 30.54,-4.98 61.26,-5.03 91.05,-0.41 21.75,3.37 43.01,9.24 63.45,17.53 6.82,2.76 13.54,5.79 20.16,9.09 27.71,13.76 52.88,31.79 74.81,53.55 22.07,21.9 40.38,47.14 54.42,74.99 14,27.78 23.34,57.45 27.74,88.14 1.99,13.85 2.99,27.74 2.99,41.27 0,14.92 -1.18,30.03 -3.5,44.9 -4.69,29.98 -14.15,59 -28.12,86.24 -10.39,20.27 -23.03,39.11 -37.7,56.23" /></g></g></svg>